PathFileType	4	(X/Y/Z)	D:\TRACE\v60_Jaco2_6-2-23\BothDRS_Motion1_8-platform.trc
DataRate	CameraRate	NumFrames	NumMarkers	Units	OrigDataRate	OrigDataStartFrame	OrigNumFrames
100.00	100.00	      72	5	mm	100.00	2813	      7500
Frame#	Time	Left_Front			Right_Front			Left_Aft			Right_Aft			Post			
		X1	Y1	Z1	X2	Y2	Z2	X3	Y3	Z3	X4	Y4	Z4	X5	Y5	Z5	

2813	28.120	-751.05518	25.42106	-635.01215	819.10858	26.68120	-640.27502	-659.08716	-4.19841	499.61700	783.44141	-4.76646	510.17691	34.77632	1332.30969	-924.70813	
2814	28.130	-750.84900	25.81055	-634.83191	819.17847	27.11379	-640.11127	-658.88501	-4.45549	499.73993	783.89813	-4.89107	510.34518	35.07433	1332.79370	-924.10626	
2815	28.140	-750.69299	26.09807	-634.79626	819.46259	27.57845	-639.86487	-658.79626	-4.64497	499.76123	783.88934	-5.16572	510.63223	35.26729	1333.42847	-923.65338	
2816	28.150	-750.72992	26.40939	-634.71277	819.40051	27.91936	-639.76715	-658.72955	-4.86840	499.84256	782.96637	-5.83405	509.03076	35.41533	1333.78113	-923.28595	
2817	28.160	-750.67535	26.72343	-634.72552	819.45520	28.21060	-639.73254	-658.76318	-5.10529	499.94574	782.92627	-6.30485	508.83856	35.72042	1334.34021	-923.00604	
2818	28.170	-750.48511	27.16663	-634.52423	819.58258	28.59624	-639.71722	-659.24390	-4.85358	500.33167	783.11768	-6.52200	509.39703	35.93782	1334.76489	-922.21057	
2819	28.180	-750.48383	28.00601	-634.62494	819.47968	28.96434	-639.69739	-659.15997	-5.06141	500.31641	783.55859	-6.70587	509.52103	35.88374	1335.41724	-921.33405	
2820	28.190	-750.31073	28.33386	-634.40137	819.59222	29.28500	-639.51935	-659.07635	-5.30772	500.49246	783.64386	-6.92777	509.57959	35.98801	1335.96924	-920.56500	
2821	28.200	-750.37506	28.77097	-634.30249	819.68225	29.76510	-639.37201	-659.10071	-5.67299	500.55457	783.67761	-7.09296	509.71896	35.63293	1336.57166	-919.13971	
2822	28.210	-750.44604	28.83097	-634.23480	819.73035	30.09156	-639.27869	-659.02240	-6.07376	500.68304	783.57532	-7.36187	509.78964	35.31351	1337.00806	-918.32043	
2823	28.220	-750.38806	29.00329	-634.11346	819.73822	30.40026	-639.10657	-658.87000	-6.46502	500.59195	783.61676	-7.63010	509.90146	35.74091	1337.31384	-916.69049	
2824	28.230	-750.38733	29.25438	-634.02368	819.70221	30.72257	-638.96808	-658.89783	-6.64537	500.63971	783.59698	-7.87078	509.91501	35.81775	1337.78442	-915.61542	
2825	28.240	-750.32642	29.58813	-633.76007	819.74774	30.92440	-638.91400	-658.79163	-6.75317	500.63980	783.61255	-8.13811	509.97253	35.71242	1338.32581	-914.51794	
2826	28.250	-750.45966	30.06486	-633.62122	819.57037	31.26252	-638.96417	-658.76038	-6.86819	500.69205	783.68237	-8.27354	510.02505	35.72380	1338.70813	-914.24359	
2827	28.260	-750.59320	30.31753	-633.52576	819.51007	31.63875	-638.92944	-658.80005	-7.14979	500.72488	783.71814	-8.38162	510.03021	35.79007	1339.26624	-913.94202	
2828	28.270	-750.57642	30.52716	-633.45825	819.39716	31.94316	-638.77820	-658.94513	-7.56165	500.77335	783.55536	-8.68335	510.16476	35.91847	1339.87903	-913.76489	
2829	28.280	-750.61224	31.03809	-633.55957	819.42865	32.20734	-638.54102	-658.72931	-8.36609	500.94620	783.28455	-9.19626	510.27646	35.86962	1340.34705	-913.49664	
2830	28.290	-750.82239	31.56531	-633.56067	819.27228	32.43870	-638.45319	-659.06183	-8.26408	500.83688	783.04004	-9.35861	510.45706	35.73637	1340.64893	-913.07294	
2831	28.300	-750.99573	31.99000	-633.66199	819.01337	33.06342	-638.43213	-659.12360	-8.55380	500.97821	783.03601	-9.48603	510.36801	35.74510	1340.97290	-912.43396	
2832	28.310	-751.28796	32.37641	-633.40369	818.83508	33.46032	-638.30084	-659.33582	-8.74891	501.08228	782.90942	-9.61797	510.44080	35.60557	1341.42249	-911.89026	
2833	28.320	-751.52295	32.54292	-633.40021	818.65686	33.75783	-638.25378	-659.58185	-8.97656	501.13657	782.68231	-9.83122	510.56363	34.48508	1341.84607	-910.96301	
2834	28.330	-751.64886	32.67471	-633.44611	818.43762	33.93695	-638.29413	-659.88123	-9.11353	501.25229	782.40344	-10.04433	510.65475	34.33112	1342.22498	-910.12280	
2835	28.340	-751.84131	32.83850	-633.35205	818.24091	34.11612	-638.19672	-660.09698	-9.33793	501.32761	781.94489	-10.37456	510.69418	34.33348	1342.52075	-908.64252	
2836	28.350	-752.13947	33.09093	-633.21716	817.89368	34.31352	-638.21234	-660.27069	-9.49662	501.38861	781.54657	-10.59691	510.68961	34.12132	1342.80493	-907.72955	
2837	28.360	-752.60510	33.38485	-632.95850	817.56915	34.61261	-637.94232	-660.92950	-9.04722	501.08945	781.00208	-10.90733	510.66721	33.59840	1342.99597	-906.94879	
2838	28.370	-753.05957	33.58731	-632.85406	817.01233	34.95895	-637.96014	-660.98035	-9.59158	501.55881	780.84656	-10.97201	510.68552	33.34058	1343.30090	-906.70319	
2839	28.380	-753.29254	33.60971	-632.83856	816.69305	35.09015	-637.87085	-661.74329	-9.30516	501.22345	780.68085	-11.04961	510.72226	33.11045	1343.69019	-906.55652	
2840	28.390	-753.55908	33.69232	-632.85168	816.42480	35.05877	-637.80579	-662.10577	-9.49543	501.22360	780.45703	-11.15646	510.91574	33.10094	1343.96240	-906.54230	
2841	28.400	-753.97150	33.83592	-632.81354	815.97632	35.36281	-637.74158	-662.35529	-9.64451	501.31729	780.19568	-11.33857	511.13797	32.89741	1344.51807	-906.62103	
2842	28.410	-754.44720	34.22392	-632.77380	815.71387	35.54578	-637.71729	-662.75708	-9.77867	501.34149	779.75317	-11.47250	511.32510	32.28871	1344.94739	-906.48938	
2843	28.420	-754.72839	34.46815	-632.61621	815.25244	35.83220	-637.58716	-663.39514	-9.92126	501.24396	779.15936	-11.72635	511.26483	31.45665	1345.33398	-906.02539	
2844	28.430	-755.08990	34.63520	-632.57373	814.93903	36.04052	-637.51843	-663.82928	-10.11662	501.29968	778.75867	-11.97834	511.21713	31.22276	1345.52173	-905.80151	
2845	28.440	-755.62982	35.00798	-632.47906	814.43567	36.31467	-637.63062	-664.16858	-10.17993	501.40314	778.54205	-12.00438	511.22736	30.95008	1345.73279	-905.27820	
2846	28.450	-756.17804	34.98803	-632.35248	813.88965	36.54803	-637.64703	-664.45239	-10.23142	501.54175	778.12512	-12.02722	511.29437	30.46442	1345.88037	-904.45758	
2847	28.460	-756.59583	35.15934	-632.32001	813.35687	36.49153	-637.50439	-664.95276	-10.46350	501.59869	777.43488	-12.31779	511.32690	29.62893	1346.15466	-903.40649	
2848	28.470	-756.97998	35.26589	-632.12830	812.92181	36.73534	-637.39093	-665.42706	-10.65792	501.65149	776.78485	-12.40192	511.40149	29.00472	1346.27856	-902.58942	
2849	28.480	-757.36774	35.41343	-632.09711	812.50970	36.95672	-637.30353	-665.82147	-10.76922	501.73953	776.44543	-12.44697	511.39850	28.66212	1346.37122	-901.79187	
2850	28.490	-757.93866	35.72083	-632.17731	812.00311	37.13043	-637.20667	-666.32367	-10.83072	501.87283	776.17383	-12.46046	511.45563	28.20479	1346.57446	-901.04352	
2851	28.500	-758.48584	35.89783	-632.23114	811.46783	37.29634	-637.28955	-666.64221	-11.33852	502.14990	775.76202	-12.53642	511.45523	27.79959	1346.95544	-900.94397	
2852	28.510	-759.09814	35.97306	-632.19098	811.00305	37.48490	-637.21765	-667.17023	-11.33737	502.08411	775.46979	-12.69893	511.79016	27.46752	1347.24585	-901.00549	
2853	28.520	-759.74463	36.32988	-631.99969	810.48242	37.59993	-637.25647	-667.61670	-11.53425	502.13809	774.54126	-12.81349	511.91193	26.94510	1347.45752	-901.12775	
2854	28.530	-760.28717	36.48787	-631.91388	809.86078	37.65931	-637.03021	-668.29376	-11.78646	502.00259	773.61304	-13.16465	511.94101	26.44937	1347.63989	-901.46759	
2855	28.540	-760.50385	36.55830	-631.88916	809.23749	37.66956	-637.00806	-668.98193	-11.87647	502.04062	773.17596	-13.23680	512.05219	25.92577	1347.85010	-901.66266	
2856	28.550	-761.10114	36.68476	-631.88733	808.75415	37.94320	-637.05383	-669.32751	-11.88305	502.05533	772.86292	-13.27765	512.04144	25.26777	1348.13953	-901.47931	
2857	28.560	-761.61017	36.89504	-632.02716	808.11877	38.09792	-637.08167	-669.96899	-11.83565	502.13205	772.42792	-13.19918	511.68692	24.55155	1348.36157	-901.14905	
2858	28.570	-762.45197	37.15166	-632.10986	807.58655	38.09001	-637.03156	-670.70483	-11.84573	502.28824	771.78278	-13.16052	511.74576	23.82724	1348.36194	-900.89203	
2859	28.580	-763.08191	37.17943	-632.02985	806.82196	38.19604	-636.92426	-671.55237	-11.40007	502.11444	770.75818	-13.53182	512.21619	23.06917	1348.47937	-900.14008	
2860	28.590	-763.55878	37.08724	-631.71515	806.22430	38.24964	-636.86749	-672.15973	-11.80585	502.34332	770.06891	-13.82692	512.25763	22.48665	1348.53479	-899.17316	
2861	28.600	-764.23651	36.96140	-631.77405	805.74310	38.30991	-636.86438	-672.65063	-11.90641	502.25919	769.48926	-13.63746	511.70087	22.24088	1348.81885	-898.67963	
2862	28.610	-764.86420	37.25410	-631.81073	805.15967	38.51075	-636.90424	-673.27838	-11.87008	502.10486	768.97900	-13.61963	511.63745	21.41714	1348.89404	-898.14569	
2863	28.620	-765.60913	37.40197	-631.79810	804.43823	38.70403	-636.83636	-673.70917	-11.94113	502.30807	768.46924	-13.56470	511.59760	20.55863	1348.99207	-897.92554	
2864	28.630	-766.44574	37.57718	-631.96783	803.70758	38.78067	-636.73083	-674.60541	-12.13361	502.29077	767.71387	-13.78887	511.69064	19.98625	1349.18811	-897.98004	
2865	28.640	-767.03784	37.53119	-632.07141	803.16913	38.81432	-636.67407	-675.20294	-12.23666	502.22839	767.16138	-13.92593	511.81976	19.49008	1349.28064	-897.98779	
2866	28.650	-767.43402	37.50467	-631.49841	802.51501	38.91496	-636.71753	-676.00317	-12.26225	502.31375	766.34668	-14.00695	511.79889	19.01735	1349.42334	-898.16992	
2867	28.660	-768.16681	37.71867	-631.57117	801.86078	38.99351	-636.69281	-676.78809	-12.22757	502.35553	765.71167	-13.87336	511.79721	18.25925	1349.54907	-898.62598	
2868	28.670	-769.13037	37.82785	-631.48962	800.89886	39.03321	-636.67230	-677.35010	-12.15063	502.49005	765.08942	-13.76215	511.86395	17.21053	1349.64490	-898.76178	
2869	28.680	-769.96222	37.85263	-631.65295	800.20496	39.01822	-636.57318	-678.06439	-12.18759	502.61270	764.37256	-13.94607	511.88159	16.40905	1349.67419	-898.44250	
2870	28.690	-770.57935	37.77881	-631.71423	799.44104	38.92295	-636.71893	-678.77032	-12.18703	502.44479	763.52802	-14.07860	511.81702	15.97568	1349.53528	-898.22412	
2871	28.700	-771.23761	37.73614	-631.60156	798.75037	38.85334	-636.81549	-679.53839	-12.43941	502.47205	762.77466	-14.15851	511.90765	15.55248	1349.24915	-898.00458	
2872	28.710	-771.63263	37.82627	-631.47711	797.96783	38.86217	-636.61499	-680.27179	-12.53670	502.43747	762.11298	-13.97945	511.99252	14.69402	1349.33337	-897.40735	
2873	28.720	-772.93610	37.96675	-631.43341	797.28705	38.85487	-636.48254	-680.81610	-12.57080	502.41382	761.02673	-13.91299	512.05487	13.75262	1349.54895	-897.01666	
2874	28.730	-773.50299	38.02503	-631.66864	796.36432	39.18250	-636.57880	-681.63629	-12.54611	502.44980	760.54901	-13.92466	512.13019	12.78392	1349.65405	-897.42383	
2875	28.740	-774.46948	38.10607	-631.61816	795.81824	39.20813	-636.54791	-682.45105	-12.64721	502.47818	760.04480	-13.99262	512.12976	12.04516	1349.69629	-897.54773	
2876	28.750	-774.93988	37.98158	-631.52704	794.97516	39.03432	-636.59094	-683.20886	-12.66733	502.52286	758.80450	-14.14470	511.95044	11.34051	1349.69995	-897.53290	
2877	28.760	-775.81500	37.82316	-631.31482	794.26721	38.79254	-636.51471	-684.16962	-12.67418	502.48438	757.65289	-14.07759	512.07684	10.56781	1349.72180	-897.32776	
2878	28.770	-776.87415	37.71151	-631.37091	793.30475	38.75753	-636.58484	-685.25677	-12.42775	502.48773	757.34918	-14.21313	512.08002	9.80044	1349.69080	-897.42664	
2879	28.780	-777.69824	37.88035	-631.54285	792.39978	38.93802	-636.53589	-685.78949	-12.68474	502.63998	756.33179	-14.35645	512.04797	8.83256	1349.70496	-897.43365	
2880	28.790	-778.54065	38.24060	-631.45319	791.62201	38.87740	-636.59039	-686.49371	-12.67379	502.57602	755.62787	-14.14807	512.04932	7.80725	1349.85828	-897.80322	
2881	28.800	-779.20703	38.18591	-631.26630	790.92328	39.02913	-636.60077	-687.36957	-12.57302	502.57980	754.83636	-13.92710	512.17157	7.04931	1349.92749	-897.77954	
2882	28.810	-780.01868	37.96501	-631.21466	789.88416	38.95767	-636.53192	-688.21985	-12.64217	502.61090	754.05646	-14.07659	512.13495	6.49379	1349.79919	-897.62524	
2883	28.820	-781.00958	37.67025	-631.53528	789.24133	38.88818	-636.37585	-688.89203	-12.79201	502.59708	753.10724	-14.03395	512.09668	5.48822	1349.69958	-897.52216	
2884	28.830	-781.94562	37.81642	-631.66260	788.15009	38.87091	-636.43726	-689.64172	-12.94788	502.66812	752.43524	-14.00056	512.05273	4.39254	1349.66479	-897.47345	
